<?xml version="1.0" encoding="utf-8"?><svg viewBox="0 0 40 40" xmlns="http://www.w3.org/2000/svg" xmlns:xlink="http://www.w3.org/1999/xlink"><style>:root>svg{display:none}:root>svg:target{display:block}</style><svg viewBox="0 0 40 40" id="game" xmlns="http://www.w3.org/2000/svg"><path d="M34.895 12.55C32.045 6.865 26.338 3.333 20 3.333 10.81 3.333 3.333 10.81 3.333 20c0 9.19 7.477 16.667 16.667 16.667 6.338 0 12.045-3.532 14.895-9.217a1.667 1.667 0 00-.662-2.193L25.028 20l9.204-5.255a1.668 1.668 0 00.663-2.195zM20.84 18.553a1.665 1.665 0 000 2.894l10.288 5.875A13.248 13.248 0 0120 33.333c-7.352 0-13.333-5.981-13.333-13.333S12.648 6.667 20 6.667a13.25 13.25 0 0111.128 6.01L20.84 18.553z"/><path d="M19.167 15a2.5 2.5 0 100-5 2.5 2.5 0 000 5z"/></svg><svg viewBox="0 0 24 24" id="next" xmlns="http://www.w3.org/2000/svg"><path d="M12 0a12 12 0 1012 12A12.01 12.01 0 0012 0zm4.641 12.768l-6 5a1 1 0 11-1.282-1.536L14.437 12 9.359 7.768a1 1 0 111.282-1.536l6 5a1 1 0 010 1.536z" data-name="19. Next"/></svg><svg viewBox="0 0 24 24" id="prev" xmlns="http://www.w3.org/2000/svg"><path d="M12 0a12 12 0 1012 12A12.01 12.01 0 0012 0zm2.64 16.232a1 1 0 11-1.28 1.536l-6-5a1 1 0 010-1.536l6-5a1 1 0 111.28 1.536L9.562 12z" data-name="16. Previous"/></svg><svg viewBox="0 0 40 40" id="record" xmlns="http://www.w3.org/2000/svg"><path d="M20 37.5a17.5 17.5 0 110-35 17.5 17.5 0 010 35zm0 2.5a20 20 0 100-40 20 20 0 000 40z"/><path d="M27.5 20a7.5 7.5 0 11-15 0 7.5 7.5 0 0115 0z"/></svg><svg viewBox="0 0 40 40" id="share" xmlns="http://www.w3.org/2000/svg"><path d="M29.375 25.938c-1.113 0-2.14.39-2.945 1.043l-8.094-5.856a6.273 6.273 0 000-2.25l8.094-5.855a4.666 4.666 0 002.945 1.043 4.691 4.691 0 004.688-4.688 4.691 4.691 0 00-4.688-4.688 4.691 4.691 0 00-4.504 5.989l-7.687 5.566a6.246 6.246 0 00-4.997-2.492A6.248 6.248 0 005.938 20a6.248 6.248 0 006.25 6.25c2.043 0 3.856-.98 4.997-2.492l7.687 5.566a4.691 4.691 0 004.504 5.988 4.691 4.691 0 004.688-4.687 4.691 4.691 0 00-4.688-4.688zm0-18.594a2.032 2.032 0 010 4.062 2.032 2.032 0 010-4.062zM12.187 23.437A3.443 3.443 0 018.75 20a3.443 3.443 0 013.438-3.438A3.443 3.443 0 0115.624 20a3.443 3.443 0 01-3.438 3.438zm17.188 9.22a2.032 2.032 0 010-4.063 2.032 2.032 0 010 4.062z"/></svg><svg viewBox="0 0 30 16" id="streams-arrow" xmlns="http://www.w3.org/2000/svg"><path d="M1 7a1 1 0 000 2V7zm28.707 1.707a1 1 0 000-1.414L23.343.929a1 1 0 10-1.414 1.414L27.586 8l-5.657 5.657a1 1 0 001.414 1.414l6.364-6.364zM1 9h28V7H1v2z"/><defs><linearGradient id="fa" x1="2.5" y1="7.5" x2="31" y2="10.5" gradientUnits="userSpaceOnUse"><stop stop-color="#8F00FF"/><stop offset="1" stop-color="#BA62FF"/></linearGradient></defs></svg></svg>